# xmcd
#
# Track frame offsets:
#	150
#	18275
#	36318
#	54572
#	68797
#	82341
#	93964
#	111576
#	124098
#	136676
#	151681
#	172220
#	185169
#	199227
#	216928
#	236086
#
# Disc length: 3344 seconds
#
# Revision: 0
# Processed by: cddbd v1.5.2PL0 Copyright (c) Steve Scherf et al.
# Submitted via: dBpowerAMP V4.0
#
DISCID=ec0d0e10
DTITLE=Ruth and Ruhan - Dá pra sentir na pele
DYEAR=1900
DGENRE=Sertaneja
TTITLE0=01 - Paixão mal resolvida
TTITLE1=02 - Se não fosse a viola
TTITLE2=03 - Dá pra sentir na pele
TTITLE3=04 - Saudade do sul
TTITLE4=05 - Quero ver o bicho pegar
TTITLE5=06 - Fogazão machão
TTITLE6=07 - Medo
TTITLE7=08 - Rainha do bailão
TTITLE8=09 - Vida de peão
TTITLE9=10 - Não da pra enganar o coração
TTITLE10=11 - O poeta
TTITLE11=12 - Cuidado meu bem cuiddo
TTITLE12=13 - Xanado por você
TTITLE13=14 - Saudde de um boiadeiro
TTITLE14=15 - Volta pra mim
TTITLE15=16 - Carne com quiabo
EXTD=
EXTT0=
EXTT1=
EXTT2=
EXTT3=
EXTT4=
EXTT5=
EXTT6=
EXTT7=
EXTT8=
EXTT9=
EXTT10=
EXTT11=
EXTT12=
EXTT13=
EXTT14=
EXTT15=
PLAYORDER=
